<svg width="245" height="53" viewBox="0 0 245 53" fill="none" xmlns="http://www.w3.org/2000/svg">
<path d="M60.6493 32.2418C60.44 32.2418 60.2686 32.1752 60.1354 32.042C60.0022 31.9087 59.9355 31.7374 59.9355 31.5281V12.9697C59.9355 12.7604 60.0022 12.5891 60.1354 12.4558C60.2686 12.3226 60.44 12.256 60.6493 12.256H63.8756C64.085 12.256 64.2563 12.3226 64.3895 12.4558C64.5228 12.5891 64.5894 12.7604 64.5894 12.9697V31.5281C64.5894 31.7374 64.5228 31.9087 64.3895 32.042C64.2563 32.1752 64.085 32.2418 63.8756 32.2418H60.6493ZM69.1732 32.2418C68.9829 32.2418 68.8211 32.1752 68.6878 32.042C68.5546 31.9087 68.488 31.7374 68.488 31.5281V18.109C68.488 17.8996 68.5546 17.7283 68.6878 17.595C68.8211 17.4618 68.9829 17.3952 69.1732 17.3952H71.9712C72.1806 17.3952 72.3519 17.4618 72.4852 17.595C72.6184 17.7283 72.685 17.8996 72.685 18.109V19.2225C73.1799 18.6134 73.8176 18.109 74.598 17.7092C75.3784 17.3095 76.3301 17.1097 77.4531 17.1097C78.5761 17.1097 79.5564 17.3666 80.3939 17.8806C81.2504 18.3754 81.9166 19.1083 82.3924 20.079C82.8873 21.0307 83.1348 22.1918 83.1348 23.5623V31.5281C83.1348 31.7374 83.0586 31.9087 82.9064 32.042C82.7731 32.1752 82.6113 32.2418 82.421 32.2418H79.3946C79.1852 32.2418 79.0139 32.1752 78.8806 32.042C78.7474 31.9087 78.6808 31.7374 78.6808 31.5281V23.7336C78.6808 22.7248 78.4333 21.9443 77.9385 21.3924C77.4626 20.8213 76.7583 20.5358 75.8257 20.5358C74.9311 20.5358 74.2173 20.8213 73.6843 21.3924C73.1514 21.9443 72.8849 22.7248 72.8849 23.7336V31.5281C72.8849 31.7374 72.8183 31.9087 72.685 32.042C72.5518 32.1752 72.39 32.2418 72.1997 32.2418H69.1732ZM92.4086 32.5273C91.2285 32.5273 90.2101 32.3941 89.3536 32.1276C88.5161 31.8421 87.8309 31.4995 87.2979 31.0998C86.784 30.7001 86.3938 30.3004 86.1273 29.9006C85.8799 29.4819 85.7466 29.1297 85.7276 28.8442C85.7086 28.6349 85.7752 28.4636 85.9275 28.3303C86.0797 28.1971 86.232 28.1305 86.3843 28.1305H89.1537C89.2108 28.1305 89.2679 28.14 89.3251 28.159C89.3822 28.178 89.4393 28.2256 89.4964 28.3018C89.7438 28.4731 90.0008 28.6729 90.2672 28.9013C90.5337 29.1107 90.8383 29.2915 91.1809 29.4438C91.5425 29.5961 91.9898 29.6722 92.5228 29.6722C93.1509 29.6722 93.6839 29.5485 94.1217 29.3011C94.5594 29.0346 94.7783 28.6634 94.7783 28.1876C94.7783 27.8449 94.6737 27.5594 94.4643 27.331C94.2739 27.1026 93.9028 26.8932 93.3508 26.7029C92.7988 26.5126 91.9803 26.3032 90.8954 26.0748C89.8675 25.8464 88.992 25.5418 88.2687 25.1611C87.5454 24.7804 87.0029 24.3046 86.6412 23.7336C86.2796 23.1435 86.0988 22.4392 86.0988 21.6208C86.0988 20.8784 86.3272 20.1647 86.784 19.4794C87.2598 18.7942 87.9546 18.2327 88.8682 17.7949C89.7819 17.3381 90.9239 17.1097 92.2944 17.1097C93.3413 17.1097 94.2549 17.2429 95.0353 17.5094C95.8347 17.7568 96.5009 18.0804 97.0339 18.4801C97.5668 18.8608 97.9666 19.2605 98.233 19.6793C98.5186 20.079 98.6708 20.4311 98.6899 20.7357C98.7089 20.926 98.6518 21.0878 98.5186 21.2211C98.3853 21.3543 98.233 21.4209 98.0617 21.4209H95.5207C95.4255 21.4209 95.3399 21.4114 95.2637 21.3924C95.1876 21.3543 95.121 21.3067 95.0639 21.2496C94.8354 21.0973 94.5975 20.926 94.3501 20.7357C94.1217 20.5263 93.8457 20.3455 93.5221 20.1932C93.1985 20.0409 92.7798 19.9648 92.2658 19.9648C91.6377 19.9648 91.1523 20.1076 90.8097 20.3931C90.4861 20.6595 90.3243 21.0022 90.3243 21.4209C90.3243 21.6874 90.41 21.9348 90.5813 22.1632C90.7526 22.3917 91.1047 22.601 91.6377 22.7914C92.1707 22.9817 92.9796 23.1816 94.0646 23.3909C95.3589 23.6194 96.3867 23.962 97.1481 24.4188C97.9095 24.8756 98.4519 25.4086 98.7755 26.0177C99.1181 26.6077 99.2894 27.2454 99.2894 27.9306C99.2894 28.8252 99.023 29.6246 98.49 30.3289C97.957 31.0141 97.1766 31.5566 96.1488 31.9563C95.14 32.337 93.8933 32.5273 92.4086 32.5273ZM109.112 32.2418C107.932 32.2418 106.923 32.0515 106.086 31.6708C105.248 31.2711 104.611 30.662 104.173 29.8435C103.754 29.0251 103.545 27.9972 103.545 26.76V20.7642H101.318C101.108 20.7642 100.937 20.6976 100.804 20.5644C100.671 20.4311 100.604 20.2598 100.604 20.0504V18.109C100.604 17.8996 100.671 17.7283 100.804 17.595C100.937 17.4618 101.108 17.3952 101.318 17.3952H103.545V12.6842C103.545 12.4748 103.611 12.3035 103.745 12.1703C103.897 12.0371 104.068 11.9704 104.258 11.9704H107.056C107.266 11.9704 107.437 12.0371 107.57 12.1703C107.704 12.3035 107.77 12.4748 107.77 12.6842V17.3952H111.339C111.53 17.3952 111.691 17.4618 111.825 17.595C111.958 17.7283 112.024 17.8996 112.024 18.109V20.0504C112.024 20.2598 111.958 20.4311 111.825 20.5644C111.691 20.6976 111.53 20.7642 111.339 20.7642H107.77V26.4174C107.77 27.1407 107.894 27.7117 108.141 28.1305C108.408 28.5302 108.865 28.73 109.512 28.73H111.596C111.786 28.73 111.948 28.7967 112.082 28.9299C112.215 29.0631 112.281 29.2249 112.281 29.4153V31.5281C112.281 31.7374 112.215 31.9087 112.082 32.042C111.948 32.1752 111.786 32.2418 111.596 32.2418H109.112ZM119.141 32.5273C118.132 32.5273 117.228 32.337 116.428 31.9563C115.629 31.5566 114.991 31.0236 114.515 30.3575C114.039 29.6913 113.802 28.9489 113.802 28.1305C113.802 26.779 114.344 25.7131 115.429 24.9327C116.533 24.1523 117.98 23.6194 119.769 23.3338L123.509 22.7914V22.2774C123.509 21.5351 123.338 20.9641 122.995 20.5644C122.652 20.1647 122.053 19.9648 121.196 19.9648C120.568 19.9648 120.064 20.0885 119.683 20.336C119.302 20.5834 119.007 20.907 118.798 21.3067C118.646 21.5541 118.427 21.6779 118.141 21.6779H115.429C115.22 21.6779 115.058 21.6208 114.944 21.5066C114.829 21.3733 114.782 21.2211 114.801 21.0497C114.801 20.7262 114.925 20.3455 115.172 19.9077C115.419 19.4699 115.8 19.0416 116.314 18.6229C116.828 18.1851 117.485 17.8235 118.284 17.5379C119.083 17.2524 120.064 17.1097 121.225 17.1097C122.424 17.1097 123.452 17.2524 124.308 17.5379C125.165 17.8235 125.85 18.2232 126.364 18.7371C126.878 19.251 127.259 19.8506 127.506 20.5358C127.754 21.202 127.877 21.9253 127.877 22.7057V31.5281C127.877 31.7374 127.811 31.9087 127.677 32.042C127.544 32.1752 127.373 32.2418 127.163 32.2418H124.365C124.175 32.2418 124.013 32.1752 123.88 32.042C123.747 31.9087 123.68 31.7374 123.68 31.5281V30.4717C123.433 30.8333 123.1 31.1759 122.681 31.4995C122.262 31.8041 121.758 32.0515 121.168 32.2418C120.597 32.4322 119.921 32.5273 119.141 32.5273ZM120.283 29.558C120.911 29.558 121.472 29.4248 121.967 29.1583C122.462 28.8918 122.852 28.4826 123.138 27.9306C123.423 27.3786 123.566 26.6839 123.566 25.8464V25.361L120.911 25.7893C119.883 25.9606 119.131 26.2175 118.655 26.5601C118.179 26.9028 117.941 27.3215 117.941 27.8164C117.941 28.178 118.046 28.4921 118.256 28.7586C118.484 29.0251 118.779 29.2249 119.141 29.3582C119.502 29.4914 119.883 29.558 120.283 29.558ZM135.938 32.2418C135.633 32.2418 135.386 32.1657 135.196 32.0134C135.024 31.8421 134.901 31.6423 134.824 31.4139L128.829 13.1125C128.81 13.0173 128.8 12.9317 128.8 12.8555C128.8 12.7033 128.857 12.57 128.971 12.4558C129.086 12.3226 129.228 12.256 129.4 12.256H132.398C132.683 12.256 132.902 12.3416 133.054 12.5129C133.226 12.6652 133.33 12.8079 133.368 12.9412L137.822 26.9028L142.248 12.9412C142.305 12.8079 142.409 12.6652 142.562 12.5129C142.714 12.3416 142.933 12.256 143.218 12.256H146.216C146.388 12.256 146.53 12.3226 146.645 12.4558C146.759 12.57 146.816 12.7033 146.816 12.8555C146.816 12.9317 146.806 13.0173 146.787 13.1125L140.792 31.4139C140.734 31.6423 140.611 31.8421 140.42 32.0134C140.249 32.1657 140.002 32.2418 139.678 32.2418H135.938ZM149.78 32.2418C149.59 32.2418 149.428 32.1752 149.295 32.042C149.162 31.9087 149.095 31.7374 149.095 31.5281V18.109C149.095 17.8996 149.162 17.7283 149.295 17.595C149.428 17.4618 149.59 17.3952 149.78 17.3952H152.635C152.845 17.3952 153.016 17.4618 153.149 17.595C153.283 17.7283 153.349 17.8996 153.349 18.109V31.5281C153.349 31.7374 153.283 31.9087 153.149 32.042C153.016 32.1752 152.845 32.2418 152.635 32.2418H149.78ZM149.695 15.1111C149.504 15.1111 149.343 15.0445 149.209 14.9112C149.076 14.778 149.009 14.6067 149.009 14.3973V12.1132C149.009 11.9038 149.076 11.7325 149.209 11.5993C149.343 11.447 149.504 11.3709 149.695 11.3709H152.693C152.902 11.3709 153.073 11.447 153.206 11.5993C153.359 11.7325 153.435 11.9038 153.435 12.1132V14.3973C153.435 14.6067 153.359 14.778 153.206 14.9112C153.073 15.0445 152.902 15.1111 152.693 15.1111H149.695ZM162.783 32.5273C161.603 32.5273 160.585 32.3941 159.728 32.1276C158.89 31.8421 158.205 31.4995 157.672 31.0998C157.158 30.7001 156.768 30.3004 156.502 29.9006C156.254 29.4819 156.121 29.1297 156.102 28.8442C156.083 28.6349 156.15 28.4636 156.302 28.3303C156.454 28.1971 156.606 28.1305 156.759 28.1305H159.528C159.585 28.1305 159.642 28.14 159.699 28.159C159.757 28.178 159.814 28.2256 159.871 28.3018C160.118 28.4731 160.375 28.6729 160.642 28.9013C160.908 29.1107 161.213 29.2915 161.555 29.4438C161.917 29.5961 162.364 29.6722 162.897 29.6722C163.525 29.6722 164.058 29.5485 164.496 29.3011C164.934 29.0346 165.153 28.6634 165.153 28.1876C165.153 27.8449 165.048 27.5594 164.839 27.331C164.648 27.1026 164.277 26.8932 163.725 26.7029C163.173 26.5126 162.355 26.3032 161.27 26.0748C160.242 25.8464 159.366 25.5418 158.643 25.1611C157.92 24.7804 157.377 24.3046 157.016 23.7336C156.654 23.1435 156.473 22.4392 156.473 21.6208C156.473 20.8784 156.702 20.1647 157.158 19.4794C157.634 18.7942 158.329 18.2327 159.243 17.7949C160.156 17.3381 161.298 17.1097 162.669 17.1097C163.716 17.1097 164.629 17.2429 165.41 17.5094C166.209 17.7568 166.875 18.0804 167.408 18.4801C167.941 18.8608 168.341 19.2605 168.607 19.6793C168.893 20.079 169.045 20.4311 169.064 20.7357C169.083 20.926 169.026 21.0878 168.893 21.2211C168.76 21.3543 168.607 21.4209 168.436 21.4209H165.895C165.8 21.4209 165.714 21.4114 165.638 21.3924C165.562 21.3543 165.495 21.3067 165.438 21.2496C165.21 21.0973 164.972 20.926 164.724 20.7357C164.496 20.5263 164.22 20.3455 163.896 20.1932C163.573 20.0409 163.154 19.9648 162.64 19.9648C162.012 19.9648 161.527 20.1076 161.184 20.3931C160.861 20.6595 160.699 21.0022 160.699 21.4209C160.699 21.6874 160.784 21.9348 160.956 22.1632C161.127 22.3917 161.479 22.601 162.012 22.7914C162.545 22.9817 163.354 23.1816 164.439 23.3909C165.733 23.6194 166.761 23.962 167.522 24.4188C168.284 24.8756 168.826 25.4086 169.15 26.0177C169.493 26.6077 169.664 27.2454 169.664 27.9306C169.664 28.8252 169.397 29.6246 168.864 30.3289C168.331 31.0141 167.551 31.5566 166.523 31.9563C165.514 32.337 164.268 32.5273 162.783 32.5273ZM173.09 32.2418C172.899 32.2418 172.738 32.1752 172.604 32.042C172.471 31.9087 172.405 31.7374 172.405 31.5281V18.109C172.405 17.8996 172.471 17.7283 172.604 17.595C172.738 17.4618 172.899 17.3952 173.09 17.3952H175.945C176.154 17.3952 176.326 17.4618 176.459 17.595C176.592 17.7283 176.659 17.8996 176.659 18.109V31.5281C176.659 31.7374 176.592 31.9087 176.459 32.042C176.326 32.1752 176.154 32.2418 175.945 32.2418H173.09ZM173.004 15.1111C172.814 15.1111 172.652 15.0445 172.519 14.9112C172.385 14.778 172.319 14.6067 172.319 14.3973V12.1132C172.319 11.9038 172.385 11.7325 172.519 11.5993C172.652 11.447 172.814 11.3709 173.004 11.3709H176.002C176.211 11.3709 176.383 11.447 176.516 11.5993C176.668 11.7325 176.744 11.9038 176.744 12.1132V14.3973C176.744 14.6067 176.668 14.778 176.516 14.9112C176.383 15.0445 176.211 15.1111 176.002 15.1111H173.004ZM187.377 32.2418C186.197 32.2418 185.188 32.0515 184.351 31.6708C183.513 31.2711 182.876 30.662 182.438 29.8435C182.019 29.0251 181.81 27.9972 181.81 26.76V20.7642H179.583C179.373 20.7642 179.202 20.6976 179.069 20.5644C178.936 20.4311 178.869 20.2598 178.869 20.0504V18.109C178.869 17.8996 178.936 17.7283 179.069 17.595C179.202 17.4618 179.373 17.3952 179.583 17.3952H181.81V12.6842C181.81 12.4748 181.876 12.3035 182.01 12.1703C182.162 12.0371 182.333 11.9704 182.523 11.9704H185.322C185.531 11.9704 185.702 12.0371 185.835 12.1703C185.969 12.3035 186.035 12.4748 186.035 12.6842V17.3952H189.604C189.795 17.3952 189.956 17.4618 190.09 17.595C190.223 17.7283 190.289 17.8996 190.289 18.109V20.0504C190.289 20.2598 190.223 20.4311 190.09 20.5644C189.956 20.6976 189.795 20.7642 189.604 20.7642H186.035V26.4174C186.035 27.1407 186.159 27.7117 186.406 28.1305C186.673 28.5302 187.13 28.73 187.777 28.73H189.861C190.052 28.73 190.213 28.7967 190.347 28.9299C190.48 29.0631 190.546 29.2249 190.546 29.4153V31.5281C190.546 31.7374 190.48 31.9087 190.347 32.042C190.213 32.1752 190.052 32.2418 189.861 32.2418H187.377ZM194.065 32.2418C193.856 32.2418 193.684 32.1752 193.551 32.042C193.418 31.9087 193.351 31.7374 193.351 31.5281V12.9697C193.351 12.7604 193.418 12.5891 193.551 12.4558C193.684 12.3226 193.856 12.256 194.065 12.256H201.631C204.01 12.256 205.885 12.8079 207.256 13.9119C208.626 14.9969 209.311 16.5672 209.311 18.6229C209.311 20.0124 208.978 21.1735 208.312 22.1061C207.646 23.0388 206.751 23.7336 205.628 24.1904L209.654 31.3282C209.711 31.4424 209.74 31.5471 209.74 31.6423C209.74 31.7945 209.683 31.9373 209.568 32.0705C209.454 32.1847 209.311 32.2418 209.14 32.2418H205.971C205.628 32.2418 205.371 32.1562 205.2 31.9849C205.029 31.7945 204.905 31.6232 204.829 31.471L201.346 24.9327H197.891V31.5281C197.891 31.7374 197.824 31.9087 197.691 32.042C197.558 32.1752 197.387 32.2418 197.177 32.2418H194.065ZM197.891 21.3067H201.546C202.592 21.3067 203.363 21.0688 203.858 20.5929C204.372 20.1171 204.629 19.4509 204.629 18.5943C204.629 17.7378 204.382 17.0621 203.887 16.5672C203.392 16.0723 202.611 15.8249 201.546 15.8249H197.891V21.3067ZM211.871 32.2418C211.7 32.2418 211.547 32.1847 211.414 32.0705C211.3 31.9373 211.243 31.785 211.243 31.6137C211.243 31.5566 211.252 31.49 211.271 31.4139C211.309 31.3187 211.357 31.233 211.414 31.1569L216.239 24.6187L211.814 18.4801C211.757 18.404 211.709 18.3279 211.671 18.2517C211.652 18.1756 211.642 18.0994 211.642 18.0233C211.642 17.852 211.7 17.7092 211.814 17.595C211.947 17.4618 212.099 17.3952 212.271 17.3952H215.24C215.468 17.3952 215.64 17.4523 215.754 17.5665C215.887 17.6807 215.982 17.7854 216.039 17.8806L218.98 21.8777L221.921 17.9091C221.997 17.8139 222.092 17.7092 222.206 17.595C222.321 17.4618 222.501 17.3952 222.749 17.3952H225.575C225.747 17.3952 225.889 17.4618 226.004 17.595C226.137 17.7092 226.204 17.852 226.204 18.0233C226.204 18.0994 226.194 18.1756 226.175 18.2517C226.156 18.3279 226.108 18.404 226.032 18.4801L221.521 24.6472L226.403 31.1569C226.461 31.233 226.499 31.3092 226.518 31.3853C226.556 31.4614 226.575 31.5376 226.575 31.6137C226.575 31.785 226.508 31.9373 226.375 32.0705C226.261 32.1847 226.118 32.2418 225.947 32.2418H222.835C222.625 32.2418 222.463 32.1943 222.349 32.0991C222.235 31.9849 222.14 31.8802 222.064 31.785L218.894 27.5594L215.668 31.785C215.611 31.8612 215.525 31.9563 215.411 32.0705C215.297 32.1847 215.126 32.2418 214.897 32.2418H211.871Z" fill="black"/>
<path d="M61.8294 48.7526C61.113 48.7526 60.5174 48.6202 60.0424 48.3554C59.5752 48.0907 59.2209 47.7208 58.9795 47.2458C58.7381 46.7708 58.6057 46.218 58.5824 45.5873C58.5746 45.268 58.5707 44.9254 58.5707 44.5594C58.5707 44.1934 58.5746 43.843 58.5824 43.5082C58.6057 42.8775 58.7381 42.3246 58.9795 41.8496C59.2209 41.3747 59.5752 41.0048 60.0424 40.74C60.5174 40.4753 61.113 40.3429 61.8294 40.3429C62.3667 40.3429 62.8378 40.4169 63.2427 40.5648C63.6476 40.7128 63.9824 40.9113 64.2472 41.1605C64.5197 41.4097 64.7261 41.69 64.8662 42.0015C65.0064 42.3052 65.0843 42.6205 65.0998 42.9476C65.1076 43.0176 65.0843 43.076 65.0297 43.1228C64.983 43.1695 64.9246 43.1928 64.8545 43.1928H64.2121C64.1421 43.1928 64.0798 43.1734 64.0253 43.1344C63.9785 43.0955 63.9435 43.0254 63.9201 42.9242C63.7878 42.3168 63.5386 41.9003 63.1726 41.6744C62.8144 41.4486 62.3628 41.3357 61.8177 41.3357C61.1948 41.3357 60.7003 41.5148 60.3344 41.873C59.9684 42.2234 59.7698 42.7879 59.7387 43.5666C59.7153 44.2051 59.7153 44.8592 59.7387 45.5289C59.7698 46.3075 59.9684 46.876 60.3344 47.2342C60.7003 47.5846 61.1948 47.7598 61.8177 47.7598C62.3628 47.7598 62.8144 47.6468 63.1726 47.421C63.5386 47.1952 63.7878 46.7786 63.9201 46.1713C63.9435 46.07 63.9785 46 64.0253 45.961C64.0798 45.9221 64.1421 45.9026 64.2121 45.9026H64.8545C64.9246 45.9026 64.983 45.926 65.0297 45.9727C65.0843 46.0194 65.1076 46.0778 65.0998 46.1479C65.0843 46.4749 65.0064 46.7942 64.8662 47.1057C64.7261 47.4094 64.5197 47.6858 64.2472 47.935C63.9824 48.1841 63.6476 48.3827 63.2427 48.5306C62.8378 48.6786 62.3667 48.7526 61.8294 48.7526ZM68.2069 48.7526C67.8176 48.7526 67.4633 48.6747 67.144 48.519C66.8248 48.3632 66.5678 48.153 66.3731 47.8882C66.1785 47.6235 66.0811 47.3237 66.0811 46.9889C66.0811 46.4516 66.2992 46.0233 66.7352 45.7041C67.1713 45.3848 67.7397 45.1746 68.4405 45.0733L70.1808 44.8281V44.4893C70.1808 44.1156 70.0718 43.8236 69.8538 43.6133C69.6436 43.4031 69.297 43.298 68.8143 43.298C68.4639 43.298 68.1797 43.3681 67.9616 43.5082C67.7514 43.6484 67.6034 43.8275 67.5178 44.0455C67.4711 44.1623 67.3893 44.2207 67.2725 44.2207H66.7469C66.6612 44.2207 66.5951 44.1973 66.5483 44.1506C66.5094 44.0961 66.4899 44.0338 66.4899 43.9637C66.4899 43.8469 66.5328 43.7029 66.6184 43.5316C66.7119 43.3603 66.852 43.1928 67.0389 43.0293C67.2258 42.8658 67.4633 42.7295 67.7514 42.6205C68.0473 42.5037 68.4055 42.4453 68.826 42.4453C69.2932 42.4453 69.6864 42.5076 70.0056 42.6322C70.3249 42.749 70.5741 42.9086 70.7532 43.1111C70.94 43.3135 71.0724 43.5433 71.1503 43.8002C71.2359 44.0572 71.2788 44.318 71.2788 44.5828V48.3671C71.2788 48.445 71.2515 48.5112 71.197 48.5657C71.1503 48.6124 71.088 48.6358 71.0101 48.6358H70.4728C70.3872 48.6358 70.321 48.6124 70.2743 48.5657C70.2276 48.5112 70.2042 48.445 70.2042 48.3671V47.8649C70.103 48.005 69.9667 48.1452 69.7954 48.2854C69.6241 48.4177 69.41 48.5306 69.153 48.6241C68.896 48.7097 68.5807 48.7526 68.2069 48.7526ZM68.4522 47.8766C68.7714 47.8766 69.0634 47.8104 69.3282 47.678C69.5929 47.5378 69.7993 47.3237 69.9472 47.0356C70.103 46.7475 70.1808 46.3854 70.1808 45.9493V45.6223L68.826 45.8209C68.2731 45.8987 67.8565 46.0311 67.5762 46.218C67.2959 46.3971 67.1557 46.6268 67.1557 46.9071C67.1557 47.1251 67.218 47.3081 67.3426 47.4561C67.475 47.5962 67.6385 47.7014 67.8331 47.7714C68.0356 47.8415 68.2419 47.8766 68.4522 47.8766ZM73.2265 48.6358C73.1486 48.6358 73.0824 48.6124 73.0279 48.5657C72.9812 48.5112 72.9579 48.445 72.9579 48.3671V42.8424C72.9579 42.7646 72.9812 42.6984 73.0279 42.6439C73.0824 42.5894 73.1486 42.5621 73.2265 42.5621H73.7638C73.8417 42.5621 73.9078 42.5894 73.9623 42.6439C74.0169 42.6984 74.0441 42.7646 74.0441 42.8424V43.3564C74.1998 43.0916 74.414 42.8931 74.6865 42.7607C74.959 42.6283 75.2861 42.5621 75.6676 42.5621H76.1348C76.2127 42.5621 76.275 42.5894 76.3217 42.6439C76.3684 42.6906 76.3918 42.7529 76.3918 42.8308V43.3097C76.3918 43.3875 76.3684 43.4498 76.3217 43.4965C76.275 43.5433 76.2127 43.5666 76.1348 43.5666H75.434C75.0136 43.5666 74.6826 43.6912 74.4412 43.9404C74.1998 44.1818 74.0791 44.5127 74.0791 44.9332V48.3671C74.0791 48.445 74.0519 48.5112 73.9974 48.5657C73.9429 48.6124 73.8767 48.6358 73.7988 48.6358H73.2265ZM79.6986 48.7526C78.8966 48.7526 78.2581 48.5073 77.7831 48.0167C77.3081 47.5184 77.0473 46.8409 77.0005 45.9844C76.9927 45.8832 76.9889 45.7547 76.9889 45.5989C76.9889 45.4354 76.9927 45.303 77.0005 45.2018C77.0317 44.649 77.1602 44.1662 77.386 43.7535C77.6118 43.333 77.9194 43.0099 78.3087 42.784C78.7058 42.5582 79.1691 42.4453 79.6986 42.4453C80.2904 42.4453 80.7849 42.5699 81.182 42.8191C81.5869 43.0683 81.8945 43.4226 82.1047 43.882C82.315 44.3414 82.4201 44.8787 82.4201 45.4938V45.6924C82.4201 45.778 82.3928 45.8442 82.3383 45.8909C82.2916 45.9377 82.2293 45.961 82.1514 45.961H78.1101C78.1101 45.9688 78.1101 45.9844 78.1101 46.0077C78.1101 46.0311 78.1101 46.0506 78.1101 46.0661C78.1257 46.3854 78.1958 46.6852 78.3204 46.9655C78.445 47.238 78.6241 47.46 78.8577 47.6313C79.0913 47.8026 79.3716 47.8882 79.6986 47.8882C79.9789 47.8882 80.2125 47.8454 80.3994 47.7598C80.5863 47.6741 80.7382 47.5807 80.855 47.4794C80.9718 47.3704 81.0496 47.2887 81.0886 47.2342C81.1586 47.1329 81.2131 47.0745 81.2521 47.0589C81.291 47.0356 81.3533 47.0239 81.439 47.0239H81.9996C82.0775 47.0239 82.1398 47.0473 82.1865 47.094C82.241 47.1329 82.2643 47.1913 82.2566 47.2692C82.2488 47.386 82.1865 47.53 82.0697 47.7014C81.9529 47.8649 81.7855 48.0284 81.5674 48.1919C81.3494 48.3554 81.0847 48.4917 80.7732 48.6007C80.4617 48.7019 80.1035 48.7526 79.6986 48.7526ZM78.1101 45.1551H81.3105V45.1201C81.3105 44.7697 81.2443 44.4582 81.1119 44.1857C80.9873 43.9131 80.8043 43.699 80.5629 43.5433C80.3216 43.3797 80.0335 43.298 79.6986 43.298C79.3638 43.298 79.0757 43.3797 78.8343 43.5433C78.6007 43.699 78.4216 43.9131 78.297 44.1857C78.1724 44.4582 78.1101 44.7697 78.1101 45.1201V45.1551ZM87.3389 48.6358C87.2611 48.6358 87.1949 48.6124 87.1404 48.5657C87.0937 48.5112 87.0703 48.445 87.0703 48.3671V43.4965H86.0775C85.9996 43.4965 85.9334 43.4732 85.8789 43.4265C85.8322 43.3719 85.8088 43.3058 85.8088 43.2279V42.8308C85.8088 42.7529 85.8322 42.6906 85.8789 42.6439C85.9334 42.5894 85.9996 42.5621 86.0775 42.5621H87.0703V41.9781C87.0703 41.581 87.1365 41.2345 87.2689 40.9386C87.4012 40.6349 87.6115 40.4013 87.8996 40.2378C88.1955 40.0743 88.5887 39.9925 89.0793 39.9925H89.7801C89.8579 39.9925 89.9202 40.0198 89.9669 40.0743C90.0137 40.121 90.037 40.1833 90.037 40.2612V40.6583C90.037 40.7361 90.0137 40.8023 89.9669 40.8568C89.9202 40.9036 89.8579 40.9269 89.7801 40.9269H89.1026C88.7366 40.9269 88.4875 41.0243 88.3551 41.2189C88.2227 41.4058 88.1565 41.6783 88.1565 42.0365V42.5621H89.6633C89.7411 42.5621 89.8034 42.5894 89.8501 42.6439C89.8969 42.6906 89.9202 42.7529 89.9202 42.8308V43.2279C89.9202 43.3058 89.8969 43.3719 89.8501 43.4265C89.8034 43.4732 89.7411 43.4965 89.6633 43.4965H88.1565V48.3671C88.1565 48.445 88.1293 48.5112 88.0748 48.5657C88.0281 48.6124 87.9658 48.6358 87.8879 48.6358H87.3389ZM93.3308 48.7526C92.739 48.7526 92.2446 48.6397 91.8474 48.4138C91.4503 48.188 91.1466 47.8766 90.9364 47.4794C90.7262 47.0745 90.6093 46.6151 90.586 46.1012C90.5782 45.9688 90.5743 45.8014 90.5743 45.5989C90.5743 45.3887 90.5782 45.2213 90.586 45.0967C90.6093 44.575 90.7262 44.1156 90.9364 43.7185C91.1544 43.3213 91.462 43.0099 91.8591 42.784C92.2562 42.5582 92.7468 42.4453 93.3308 42.4453C93.9148 42.4453 94.4054 42.5582 94.8025 42.784C95.1996 43.0099 95.5033 43.3213 95.7135 43.7185C95.9316 44.1156 96.0523 44.575 96.0756 45.0967C96.0834 45.2213 96.0873 45.3887 96.0873 45.5989C96.0873 45.8014 96.0834 45.9688 96.0756 46.1012C96.0523 46.6151 95.9355 47.0745 95.7252 47.4794C95.515 47.8766 95.2113 48.188 94.8142 48.4138C94.417 48.6397 93.9226 48.7526 93.3308 48.7526ZM93.3308 47.8532C93.8136 47.8532 94.199 47.7014 94.4871 47.3977C94.7752 47.0862 94.931 46.6346 94.9543 46.0428C94.9621 45.926 94.966 45.778 94.966 45.5989C94.966 45.4198 94.9621 45.2719 94.9543 45.1551C94.931 44.5633 94.7752 44.1156 94.4871 43.8119C94.199 43.5004 93.8136 43.3447 93.3308 43.3447C92.848 43.3447 92.4587 43.5004 92.1628 43.8119C91.8747 44.1156 91.7228 44.5633 91.7073 45.1551C91.6995 45.2719 91.6956 45.4198 91.6956 45.5989C91.6956 45.778 91.6995 45.926 91.7073 46.0428C91.7228 46.6346 91.8747 47.0862 92.1628 47.3977C92.4587 47.7014 92.848 47.8532 93.3308 47.8532ZM97.8185 48.6358C97.7406 48.6358 97.6744 48.6124 97.6199 48.5657C97.5732 48.5112 97.5499 48.445 97.5499 48.3671V42.8424C97.5499 42.7646 97.5732 42.6984 97.6199 42.6439C97.6744 42.5894 97.7406 42.5621 97.8185 42.5621H98.3558C98.4337 42.5621 98.4998 42.5894 98.5543 42.6439C98.6089 42.6984 98.6361 42.7646 98.6361 42.8424V43.3564C98.7918 43.0916 99.006 42.8931 99.2785 42.7607C99.551 42.6283 99.8781 42.5621 100.26 42.5621H100.727C100.805 42.5621 100.867 42.5894 100.914 42.6439C100.96 42.6906 100.984 42.7529 100.984 42.8308V43.3097C100.984 43.3875 100.96 43.4498 100.914 43.4965C100.867 43.5433 100.805 43.5666 100.727 43.5666H100.026C99.6056 43.5666 99.2746 43.6912 99.0332 43.9404C98.7918 44.1818 98.6711 44.5127 98.6711 44.9332V48.3671C98.6711 48.445 98.6439 48.5112 98.5894 48.5657C98.5349 48.6124 98.4687 48.6358 98.3908 48.6358H97.8185ZM106.994 48.7526C106.192 48.7526 105.553 48.5073 105.078 48.0167C104.603 47.5184 104.343 46.8409 104.296 45.9844C104.288 45.8832 104.284 45.7547 104.284 45.5989C104.284 45.4354 104.288 45.303 104.296 45.2018C104.327 44.649 104.455 44.1662 104.681 43.7535C104.907 43.333 105.215 43.0099 105.604 42.784C106.001 42.5582 106.464 42.4453 106.994 42.4453C107.586 42.4453 108.08 42.5699 108.477 42.8191C108.882 43.0683 109.19 43.4226 109.4 43.882C109.61 44.3414 109.715 44.8787 109.715 45.4938V45.6924C109.715 45.778 109.688 45.8442 109.634 45.8909C109.587 45.9377 109.525 45.961 109.447 45.961H105.405C105.405 45.9688 105.405 45.9844 105.405 46.0077C105.405 46.0311 105.405 46.0506 105.405 46.0661C105.421 46.3854 105.491 46.6852 105.616 46.9655C105.74 47.238 105.919 47.46 106.153 47.6313C106.387 47.8026 106.667 47.8882 106.994 47.8882C107.274 47.8882 107.508 47.8454 107.695 47.7598C107.882 47.6741 108.033 47.5807 108.15 47.4794C108.267 47.3704 108.345 47.2887 108.384 47.2342C108.454 47.1329 108.508 47.0745 108.547 47.0589C108.586 47.0356 108.649 47.0239 108.734 47.0239H109.295C109.373 47.0239 109.435 47.0473 109.482 47.094C109.536 47.1329 109.56 47.1913 109.552 47.2692C109.544 47.386 109.482 47.53 109.365 47.7014C109.248 47.8649 109.081 48.0284 108.863 48.1919C108.645 48.3554 108.38 48.4917 108.068 48.6007C107.757 48.7019 107.399 48.7526 106.994 48.7526ZM105.405 45.1551H108.606V45.1201C108.606 44.7697 108.54 44.4582 108.407 44.1857C108.283 43.9131 108.1 43.699 107.858 43.5433C107.617 43.3797 107.329 43.298 106.994 43.298C106.659 43.298 106.371 43.3797 106.13 43.5433C105.896 43.699 105.717 43.9131 105.592 44.1857C105.468 44.4582 105.405 44.7697 105.405 45.1201V45.1551ZM113.021 48.6358C112.904 48.6358 112.81 48.6085 112.74 48.554C112.678 48.4995 112.628 48.4294 112.589 48.3438L110.428 42.9242C110.412 42.8853 110.404 42.8463 110.404 42.8074C110.404 42.7373 110.428 42.6789 110.474 42.6322C110.521 42.5855 110.58 42.5621 110.65 42.5621H111.21C111.296 42.5621 111.362 42.5855 111.409 42.6322C111.456 42.6789 111.483 42.7218 111.491 42.7607L113.278 47.3626L115.053 42.7607C115.069 42.7218 115.096 42.6789 115.135 42.6322C115.182 42.5855 115.248 42.5621 115.333 42.5621H115.906C115.968 42.5621 116.023 42.5855 116.069 42.6322C116.124 42.6789 116.151 42.7373 116.151 42.8074C116.151 42.8463 116.143 42.8853 116.128 42.9242L113.955 48.3438C113.924 48.4294 113.873 48.4995 113.803 48.554C113.741 48.6085 113.648 48.6358 113.523 48.6358H113.021ZM119.575 48.7526C118.773 48.7526 118.135 48.5073 117.66 48.0167C117.185 47.5184 116.924 46.8409 116.877 45.9844C116.869 45.8832 116.865 45.7547 116.865 45.5989C116.865 45.4354 116.869 45.303 116.877 45.2018C116.908 44.649 117.037 44.1662 117.262 43.7535C117.488 43.333 117.796 43.0099 118.185 42.784C118.582 42.5582 119.046 42.4453 119.575 42.4453C120.167 42.4453 120.661 42.5699 121.058 42.8191C121.463 43.0683 121.771 43.4226 121.981 43.882C122.191 44.3414 122.297 44.8787 122.297 45.4938V45.6924C122.297 45.778 122.269 45.8442 122.215 45.8909C122.168 45.9377 122.106 45.961 122.028 45.961H117.987C117.987 45.9688 117.987 45.9844 117.987 46.0077C117.987 46.0311 117.987 46.0506 117.987 46.0661C118.002 46.3854 118.072 46.6852 118.197 46.9655C118.321 47.238 118.501 47.46 118.734 47.6313C118.968 47.8026 119.248 47.8882 119.575 47.8882C119.855 47.8882 120.089 47.8454 120.276 47.7598C120.463 47.6741 120.615 47.5807 120.731 47.4794C120.848 47.3704 120.926 47.2887 120.965 47.2342C121.035 47.1329 121.09 47.0745 121.129 47.0589C121.167 47.0356 121.23 47.0239 121.315 47.0239H121.876C121.954 47.0239 122.016 47.0473 122.063 47.094C122.117 47.1329 122.141 47.1913 122.133 47.2692C122.125 47.386 122.063 47.53 121.946 47.7014C121.829 47.8649 121.662 48.0284 121.444 48.1919C121.226 48.3554 120.961 48.4917 120.65 48.6007C120.338 48.7019 119.98 48.7526 119.575 48.7526ZM117.987 45.1551H121.187V45.1201C121.187 44.7697 121.121 44.4582 120.988 44.1857C120.864 43.9131 120.681 43.699 120.439 43.5433C120.198 43.3797 119.91 43.298 119.575 43.298C119.24 43.298 118.952 43.3797 118.711 43.5433C118.477 43.699 118.298 43.9131 118.173 44.1857C118.049 44.4582 117.987 44.7697 117.987 45.1201V45.1551ZM123.962 48.6358C123.884 48.6358 123.818 48.6124 123.763 48.5657C123.716 48.5112 123.693 48.445 123.693 48.3671V42.8424C123.693 42.7646 123.716 42.6984 123.763 42.6439C123.818 42.5894 123.884 42.5621 123.962 42.5621H124.499C124.577 42.5621 124.643 42.5894 124.698 42.6439C124.752 42.6984 124.779 42.7646 124.779 42.8424V43.3564C124.935 43.0916 125.149 42.8931 125.422 42.7607C125.694 42.6283 126.021 42.5621 126.403 42.5621H126.87C126.948 42.5621 127.01 42.5894 127.057 42.6439C127.104 42.6906 127.127 42.7529 127.127 42.8308V43.3097C127.127 43.3875 127.104 43.4498 127.057 43.4965C127.01 43.5433 126.948 43.5666 126.87 43.5666H126.169C125.749 43.5666 125.418 43.6912 125.176 43.9404C124.935 44.1818 124.814 44.5127 124.814 44.9332V48.3671C124.814 48.445 124.787 48.5112 124.733 48.5657C124.678 48.6124 124.612 48.6358 124.534 48.6358H123.962ZM129.193 50.855C129.131 50.855 129.076 50.8316 129.03 50.7849C128.983 50.7382 128.959 50.6837 128.959 50.6214C128.959 50.5902 128.963 50.5591 128.971 50.5279C128.979 50.4968 128.994 50.4578 129.018 50.4111L129.917 48.2737L127.686 43.006C127.647 42.9125 127.628 42.8463 127.628 42.8074C127.628 42.7373 127.651 42.6789 127.698 42.6322C127.745 42.5855 127.803 42.5621 127.873 42.5621H128.446C128.523 42.5621 128.586 42.5816 128.632 42.6205C128.679 42.6595 128.71 42.7062 128.726 42.7607L130.501 47.0122L132.323 42.7607C132.347 42.7062 132.378 42.6595 132.417 42.6205C132.463 42.5816 132.53 42.5621 132.615 42.5621H133.164C133.234 42.5621 133.293 42.5855 133.339 42.6322C133.386 42.6789 133.41 42.7334 133.41 42.7957C133.41 42.8347 133.39 42.9047 133.351 43.006L130.034 50.6564C130.011 50.7109 129.976 50.7576 129.929 50.7966C129.89 50.8355 129.828 50.855 129.742 50.855H129.193ZM139.571 48.7526C139.018 48.7526 138.539 48.6474 138.135 48.4372C137.737 48.2192 137.43 47.9116 137.212 47.5145C136.994 47.1096 136.877 46.6268 136.861 46.0661C136.854 45.9493 136.85 45.7936 136.85 45.5989C136.85 45.4043 136.854 45.2485 136.861 45.1317C136.877 44.5711 136.994 44.0922 137.212 43.6951C137.43 43.2902 137.737 42.9826 138.135 42.7724C138.539 42.5543 139.018 42.4453 139.571 42.4453C140.023 42.4453 140.408 42.5076 140.727 42.6322C141.055 42.7568 141.323 42.9164 141.533 43.1111C141.744 43.3058 141.899 43.516 142.001 43.7418C142.11 43.9676 142.168 44.1818 142.176 44.3842C142.184 44.4621 142.16 44.5244 142.106 44.5711C142.051 44.6178 141.985 44.6412 141.907 44.6412H141.347C141.269 44.6412 141.21 44.6256 141.171 44.5945C141.132 44.5555 141.093 44.4932 141.055 44.4076C140.914 44.026 140.724 43.7574 140.482 43.6017C140.241 43.4459 139.941 43.3681 139.583 43.3681C139.116 43.3681 138.734 43.5121 138.438 43.8002C138.15 44.0883 137.994 44.5516 137.971 45.1901C137.963 45.4705 137.963 45.743 137.971 46.0077C137.994 46.654 138.15 47.1212 138.438 47.4094C138.734 47.6897 139.116 47.8298 139.583 47.8298C139.941 47.8298 140.241 47.752 140.482 47.5962C140.724 47.4405 140.914 47.1719 141.055 46.7903C141.093 46.7047 141.132 46.6463 141.171 46.6151C141.21 46.5762 141.269 46.5567 141.347 46.5567H141.907C141.985 46.5567 142.051 46.5801 142.106 46.6268C142.16 46.6735 142.184 46.7358 142.176 46.8137C142.168 46.9772 142.133 47.1446 142.071 47.3159C142.008 47.4872 141.907 47.6624 141.767 47.8415C141.635 48.0128 141.467 48.1686 141.265 48.3087C141.062 48.4411 140.817 48.5501 140.529 48.6358C140.249 48.7136 139.929 48.7526 139.571 48.7526ZM146.051 48.7526C145.459 48.7526 144.965 48.6397 144.567 48.4138C144.17 48.188 143.867 47.8766 143.656 47.4794C143.446 47.0745 143.329 46.6151 143.306 46.1012C143.298 45.9688 143.294 45.8014 143.294 45.5989C143.294 45.3887 143.298 45.2213 143.306 45.0967C143.329 44.575 143.446 44.1156 143.656 43.7185C143.874 43.3213 144.182 43.0099 144.579 42.784C144.976 42.5582 145.467 42.4453 146.051 42.4453C146.635 42.4453 147.125 42.5582 147.522 42.784C147.92 43.0099 148.223 43.3213 148.433 43.7185C148.652 44.1156 148.772 44.575 148.796 45.0967C148.803 45.2213 148.807 45.3887 148.807 45.5989C148.807 45.8014 148.803 45.9688 148.796 46.1012C148.772 46.6151 148.655 47.0745 148.445 47.4794C148.235 47.8766 147.931 48.188 147.534 48.4138C147.137 48.6397 146.643 48.7526 146.051 48.7526ZM146.051 47.8532C146.534 47.8532 146.919 47.7014 147.207 47.3977C147.495 47.0862 147.651 46.6346 147.674 46.0428C147.682 45.926 147.686 45.778 147.686 45.5989C147.686 45.4198 147.682 45.2719 147.674 45.1551C147.651 44.5633 147.495 44.1156 147.207 43.8119C146.919 43.5004 146.534 43.3447 146.051 43.3447C145.568 43.3447 145.179 43.5004 144.883 43.8119C144.595 44.1156 144.443 44.5633 144.427 45.1551C144.419 45.2719 144.416 45.4198 144.416 45.5989C144.416 45.778 144.419 45.926 144.427 46.0428C144.443 46.6346 144.595 47.0862 144.883 47.3977C145.179 47.7014 145.568 47.8532 146.051 47.8532ZM150.538 48.6358C150.461 48.6358 150.394 48.6124 150.34 48.5657C150.293 48.5112 150.27 48.445 150.27 48.3671V42.8308C150.27 42.7529 150.293 42.6906 150.34 42.6439C150.394 42.5894 150.461 42.5621 150.538 42.5621H151.087C151.165 42.5621 151.228 42.5894 151.274 42.6439C151.329 42.6906 151.356 42.7529 151.356 42.8308V43.3447C151.559 43.0799 151.812 42.8658 152.115 42.7023C152.427 42.531 152.824 42.4453 153.307 42.4453C153.813 42.4453 154.241 42.5582 154.591 42.784C154.95 43.0021 155.218 43.3097 155.397 43.7068C155.576 44.0961 155.666 44.5516 155.666 45.0733V48.3671C155.666 48.445 155.643 48.5112 155.596 48.5657C155.549 48.6124 155.487 48.6358 155.409 48.6358H154.825C154.747 48.6358 154.681 48.6124 154.626 48.5657C154.58 48.5112 154.556 48.445 154.556 48.3671V45.1317C154.556 44.5867 154.424 44.1623 154.159 43.8586C153.895 43.5471 153.505 43.3914 152.991 43.3914C152.508 43.3914 152.119 43.5471 151.823 43.8586C151.535 44.1623 151.391 44.5867 151.391 45.1317V48.3671C151.391 48.445 151.364 48.5112 151.309 48.5657C151.263 48.6124 151.2 48.6358 151.122 48.6358H150.538ZM159.572 48.7526C159.144 48.7526 158.774 48.6786 158.463 48.5306C158.151 48.3749 157.894 48.1686 157.692 47.9116C157.497 47.6468 157.349 47.3471 157.248 47.0122C157.155 46.6774 157.1 46.3231 157.084 45.9493C157.077 45.8248 157.073 45.708 157.073 45.5989C157.073 45.4899 157.077 45.3731 157.084 45.2485C157.1 44.8826 157.155 44.5322 157.248 44.1973C157.349 43.8625 157.497 43.5627 157.692 43.298C157.894 43.0332 158.151 42.8269 158.463 42.6789C158.774 42.5232 159.144 42.4453 159.572 42.4453C160.032 42.4453 160.413 42.5271 160.717 42.6906C161.021 42.8541 161.27 43.0566 161.465 43.298V40.6116C161.465 40.5337 161.488 40.4714 161.535 40.4247C161.589 40.3702 161.655 40.3429 161.733 40.3429H162.294C162.372 40.3429 162.434 40.3702 162.481 40.4247C162.535 40.4714 162.562 40.5337 162.562 40.6116V48.3671C162.562 48.445 162.535 48.5112 162.481 48.5657C162.434 48.6124 162.372 48.6358 162.294 48.6358H161.768C161.683 48.6358 161.616 48.6124 161.57 48.5657C161.523 48.5112 161.5 48.445 161.5 48.3671V47.8766C161.305 48.1257 161.052 48.336 160.74 48.5073C160.429 48.6708 160.04 48.7526 159.572 48.7526ZM159.818 47.8065C160.207 47.8065 160.518 47.7169 160.752 47.5378C160.986 47.3587 161.161 47.1329 161.278 46.8604C161.394 46.5801 161.457 46.2959 161.465 46.0077C161.472 45.8832 161.476 45.7352 161.476 45.5639C161.476 45.3848 161.472 45.233 161.465 45.1084C161.457 44.8358 161.391 44.5672 161.266 44.3025C161.149 44.0377 160.97 43.8197 160.729 43.6484C160.495 43.4771 160.191 43.3914 159.818 43.3914C159.421 43.3914 159.105 43.481 158.872 43.6601C158.638 43.8314 158.471 44.0611 158.369 44.3492C158.268 44.6295 158.21 44.9332 158.194 45.2602C158.186 45.486 158.186 45.7118 158.194 45.9377C158.21 46.2647 158.268 46.5723 158.369 46.8604C158.471 47.1407 158.638 47.3704 158.872 47.5495C159.105 47.7208 159.421 47.8065 159.818 47.8065ZM164.568 48.6358C164.49 48.6358 164.424 48.6124 164.37 48.5657C164.323 48.5112 164.3 48.445 164.3 48.3671V42.8308C164.3 42.7529 164.323 42.6906 164.37 42.6439C164.424 42.5894 164.49 42.5621 164.568 42.5621H165.129C165.207 42.5621 165.269 42.5894 165.316 42.6439C165.362 42.6906 165.386 42.7529 165.386 42.8308V48.3671C165.386 48.445 165.362 48.5112 165.316 48.5657C165.269 48.6124 165.207 48.6358 165.129 48.6358H164.568ZM164.475 41.4292C164.397 41.4292 164.331 41.4058 164.276 41.3591C164.229 41.3046 164.206 41.2384 164.206 41.1605V40.5298C164.206 40.4519 164.229 40.3896 164.276 40.3429C164.331 40.2884 164.397 40.2612 164.475 40.2612H165.211C165.288 40.2612 165.351 40.2884 165.397 40.3429C165.452 40.3896 165.479 40.4519 165.479 40.5298V41.1605C165.479 41.2384 165.452 41.3046 165.397 41.3591C165.351 41.4058 165.288 41.4292 165.211 41.4292H164.475ZM169.499 48.6358C169.063 48.6358 168.709 48.554 168.436 48.3905C168.164 48.2192 167.965 47.9817 167.841 47.678C167.716 47.3665 167.654 47.0005 167.654 46.5801V43.4965H166.743C166.665 43.4965 166.599 43.4732 166.544 43.4265C166.498 43.3719 166.474 43.3058 166.474 43.2279V42.8308C166.474 42.7529 166.498 42.6906 166.544 42.6439C166.599 42.5894 166.665 42.5621 166.743 42.5621H167.654V40.6116C167.654 40.5337 167.677 40.4714 167.724 40.4247C167.779 40.3702 167.845 40.3429 167.923 40.3429H168.472C168.549 40.3429 168.612 40.3702 168.658 40.4247C168.713 40.4714 168.74 40.5337 168.74 40.6116V42.5621H170.189C170.266 42.5621 170.329 42.5894 170.375 42.6439C170.43 42.6906 170.457 42.7529 170.457 42.8308V43.2279C170.457 43.3058 170.43 43.3719 170.375 43.4265C170.329 43.4732 170.266 43.4965 170.189 43.4965H168.74V46.4983C168.74 46.8643 168.802 47.1524 168.927 47.3626C169.052 47.5729 169.274 47.678 169.593 47.678H170.305C170.383 47.678 170.445 47.7052 170.492 47.7598C170.547 47.8065 170.574 47.8688 170.574 47.9466V48.3671C170.574 48.445 170.547 48.5112 170.492 48.5657C170.445 48.6124 170.383 48.6358 170.305 48.6358H169.499ZM171.959 48.6358C171.882 48.6358 171.815 48.6124 171.761 48.5657C171.714 48.5112 171.691 48.445 171.691 48.3671V42.8308C171.691 42.7529 171.714 42.6906 171.761 42.6439C171.815 42.5894 171.882 42.5621 171.959 42.5621H172.52C172.598 42.5621 172.66 42.5894 172.707 42.6439C172.754 42.6906 172.777 42.7529 172.777 42.8308V48.3671C172.777 48.445 172.754 48.5112 172.707 48.5657C172.66 48.6124 172.598 48.6358 172.52 48.6358H171.959ZM171.866 41.4292C171.788 41.4292 171.722 41.4058 171.667 41.3591C171.621 41.3046 171.597 41.2384 171.597 41.1605V40.5298C171.597 40.4519 171.621 40.3896 171.667 40.3429C171.722 40.2884 171.788 40.2612 171.866 40.2612H172.602C172.68 40.2612 172.742 40.2884 172.789 40.3429C172.843 40.3896 172.871 40.4519 172.871 40.5298V41.1605C172.871 41.2384 172.843 41.3046 172.789 41.3591C172.742 41.4058 172.68 41.4292 172.602 41.4292H171.866ZM177.007 48.7526C176.416 48.7526 175.921 48.6397 175.524 48.4138C175.127 48.188 174.823 47.8766 174.613 47.4794C174.403 47.0745 174.286 46.6151 174.263 46.1012C174.255 45.9688 174.251 45.8014 174.251 45.5989C174.251 45.3887 174.255 45.2213 174.263 45.0967C174.286 44.575 174.403 44.1156 174.613 43.7185C174.831 43.3213 175.139 43.0099 175.536 42.784C175.933 42.5582 176.423 42.4453 177.007 42.4453C177.591 42.4453 178.082 42.5582 178.479 42.784C178.876 43.0099 179.18 43.3213 179.39 43.7185C179.608 44.1156 179.729 44.575 179.752 45.0967C179.76 45.2213 179.764 45.3887 179.764 45.5989C179.764 45.8014 179.76 45.9688 179.752 46.1012C179.729 46.6151 179.612 47.0745 179.402 47.4794C179.192 47.8766 178.888 48.188 178.491 48.4138C178.094 48.6397 177.599 48.7526 177.007 48.7526ZM177.007 47.8532C177.49 47.8532 177.876 47.7014 178.164 47.3977C178.452 47.0862 178.608 46.6346 178.631 46.0428C178.639 45.926 178.643 45.778 178.643 45.5989C178.643 45.4198 178.639 45.2719 178.631 45.1551C178.608 44.5633 178.452 44.1156 178.164 43.8119C177.876 43.5004 177.49 43.3447 177.007 43.3447C176.525 43.3447 176.135 43.5004 175.839 43.8119C175.551 44.1156 175.4 44.5633 175.384 45.1551C175.376 45.2719 175.372 45.4198 175.372 45.5989C175.372 45.778 175.376 45.926 175.384 46.0428C175.4 46.6346 175.551 47.0862 175.839 47.3977C176.135 47.7014 176.525 47.8532 177.007 47.8532ZM181.495 48.6358C181.417 48.6358 181.351 48.6124 181.297 48.5657C181.25 48.5112 181.227 48.445 181.227 48.3671V42.8308C181.227 42.7529 181.25 42.6906 181.297 42.6439C181.351 42.5894 181.417 42.5621 181.495 42.5621H182.044C182.122 42.5621 182.184 42.5894 182.231 42.6439C182.286 42.6906 182.313 42.7529 182.313 42.8308V43.3447C182.515 43.0799 182.768 42.8658 183.072 42.7023C183.383 42.531 183.781 42.4453 184.263 42.4453C184.769 42.4453 185.198 42.5582 185.548 42.784C185.906 43.0021 186.175 43.3097 186.354 43.7068C186.533 44.0961 186.623 44.5516 186.623 45.0733V48.3671C186.623 48.445 186.599 48.5112 186.553 48.5657C186.506 48.6124 186.444 48.6358 186.366 48.6358H185.782C185.704 48.6358 185.638 48.6124 185.583 48.5657C185.536 48.5112 185.513 48.445 185.513 48.3671V45.1317C185.513 44.5867 185.381 44.1623 185.116 43.8586C184.851 43.5471 184.462 43.3914 183.948 43.3914C183.465 43.3914 183.076 43.5471 182.78 43.8586C182.492 44.1623 182.348 44.5867 182.348 45.1317V48.3671C182.348 48.445 182.321 48.5112 182.266 48.5657C182.219 48.6124 182.157 48.6358 182.079 48.6358H181.495ZM188.228 49.5118C188.166 49.5118 188.115 49.4884 188.076 49.4417C188.045 49.395 188.033 49.3366 188.041 49.2665L188.31 47.5962C188.325 47.5028 188.357 47.4249 188.403 47.3626C188.458 47.2926 188.536 47.2575 188.637 47.2575H189.419C189.474 47.2575 189.517 47.277 189.548 47.3159C189.587 47.3548 189.606 47.4016 189.606 47.4561C189.606 47.5184 189.591 47.5807 189.56 47.643L188.952 49.2431C188.921 49.321 188.878 49.3833 188.824 49.43C188.777 49.4845 188.707 49.5118 188.614 49.5118H188.228ZM194.35 48.6358C194.272 48.6358 194.206 48.6124 194.152 48.5657C194.105 48.5112 194.081 48.445 194.081 48.3671V42.8308C194.081 42.7529 194.105 42.6906 194.152 42.6439C194.206 42.5894 194.272 42.5621 194.35 42.5621H194.911C194.989 42.5621 195.051 42.5894 195.098 42.6439C195.144 42.6906 195.168 42.7529 195.168 42.8308V48.3671C195.168 48.445 195.144 48.5112 195.098 48.5657C195.051 48.6124 194.989 48.6358 194.911 48.6358H194.35ZM194.257 41.4292C194.179 41.4292 194.113 41.4058 194.058 41.3591C194.011 41.3046 193.988 41.2384 193.988 41.1605V40.5298C193.988 40.4519 194.011 40.3896 194.058 40.3429C194.113 40.2884 194.179 40.2612 194.257 40.2612H194.992C195.07 40.2612 195.133 40.2884 195.179 40.3429C195.234 40.3896 195.261 40.4519 195.261 40.5298V41.1605C195.261 41.2384 195.234 41.3046 195.179 41.3591C195.133 41.4058 195.07 41.4292 194.992 41.4292H194.257ZM197.179 48.6358C197.101 48.6358 197.035 48.6124 196.98 48.5657C196.934 48.5112 196.91 48.445 196.91 48.3671V42.8308C196.91 42.7529 196.934 42.6906 196.98 42.6439C197.035 42.5894 197.101 42.5621 197.179 42.5621H197.728C197.806 42.5621 197.868 42.5894 197.915 42.6439C197.969 42.6906 197.996 42.7529 197.996 42.8308V43.3447C198.199 43.0799 198.452 42.8658 198.756 42.7023C199.067 42.531 199.464 42.4453 199.947 42.4453C200.453 42.4453 200.881 42.5582 201.232 42.784C201.59 43.0021 201.859 43.3097 202.038 43.7068C202.217 44.0961 202.306 44.5516 202.306 45.0733V48.3671C202.306 48.445 202.283 48.5112 202.236 48.5657C202.19 48.6124 202.127 48.6358 202.049 48.6358H201.465C201.388 48.6358 201.321 48.6124 201.267 48.5657C201.22 48.5112 201.197 48.445 201.197 48.3671V45.1317C201.197 44.5867 201.064 44.1623 200.8 43.8586C200.535 43.5471 200.146 43.3914 199.632 43.3914C199.149 43.3914 198.76 43.5471 198.464 43.8586C198.176 44.1623 198.031 44.5867 198.031 45.1317V48.3671C198.031 48.445 198.004 48.5112 197.95 48.5657C197.903 48.6124 197.841 48.6358 197.763 48.6358H197.179ZM206.096 48.7526C205.66 48.7526 205.286 48.6981 204.975 48.589C204.663 48.48 204.41 48.3476 204.215 48.1919C204.021 48.0362 203.873 47.8804 203.772 47.7247C203.678 47.569 203.628 47.4444 203.62 47.351C203.612 47.2653 203.639 47.1991 203.702 47.1524C203.764 47.1057 203.826 47.0823 203.888 47.0823H204.402C204.449 47.0823 204.484 47.0901 204.507 47.1057C204.539 47.1135 204.578 47.1446 204.624 47.1991C204.725 47.3081 204.838 47.4171 204.963 47.5262C205.088 47.6352 205.239 47.7247 205.418 47.7948C205.605 47.8649 205.835 47.8999 206.108 47.8999C206.505 47.8999 206.832 47.8259 207.089 47.678C207.346 47.5223 207.474 47.2964 207.474 47.0005C207.474 46.8059 207.42 46.6501 207.311 46.5333C207.209 46.4165 207.023 46.3114 206.75 46.218C206.485 46.1245 206.119 46.0272 205.652 45.926C205.185 45.817 204.815 45.6846 204.542 45.5289C204.27 45.3653 204.075 45.1746 203.958 44.9565C203.842 44.7307 203.783 44.4777 203.783 44.1973C203.783 43.9092 203.869 43.6328 204.04 43.3681C204.212 43.0955 204.461 42.8736 204.788 42.7023C205.123 42.531 205.539 42.4453 206.038 42.4453C206.442 42.4453 206.789 42.4959 207.077 42.5972C207.365 42.6984 207.603 42.8269 207.79 42.9826C207.976 43.1306 208.117 43.2785 208.21 43.4265C208.303 43.5744 208.354 43.699 208.362 43.8002C208.37 43.8781 208.346 43.9443 208.292 43.9988C208.237 44.0455 208.175 44.0689 208.105 44.0689H207.614C207.56 44.0689 207.513 44.0572 207.474 44.0338C207.443 44.0105 207.412 43.9832 207.381 43.9521C207.303 43.8508 207.209 43.7496 207.1 43.6484C206.999 43.5471 206.863 43.4654 206.692 43.4031C206.528 43.333 206.31 43.298 206.038 43.298C205.648 43.298 205.356 43.3797 205.162 43.5433C204.967 43.7068 204.87 43.9131 204.87 44.1623C204.87 44.3102 204.912 44.4426 204.998 44.5594C205.084 44.6762 205.247 44.7813 205.489 44.8748C205.73 44.9682 206.088 45.0694 206.563 45.1785C207.077 45.2797 207.482 45.416 207.778 45.5873C208.074 45.7586 208.284 45.9571 208.409 46.1829C208.533 46.4088 208.595 46.6696 208.595 46.9655C208.595 47.2926 208.498 47.5923 208.303 47.8649C208.117 48.1374 207.836 48.3554 207.462 48.519C207.097 48.6747 206.641 48.7526 206.096 48.7526ZM212.307 48.6358C211.871 48.6358 211.517 48.554 211.244 48.3905C210.972 48.2192 210.773 47.9817 210.649 47.678C210.524 47.3665 210.462 47.0005 210.462 46.5801V43.4965H209.551C209.473 43.4965 209.407 43.4732 209.352 43.4265C209.305 43.3719 209.282 43.3058 209.282 43.2279V42.8308C209.282 42.7529 209.305 42.6906 209.352 42.6439C209.407 42.5894 209.473 42.5621 209.551 42.5621H210.462V40.6116C210.462 40.5337 210.485 40.4714 210.532 40.4247C210.586 40.3702 210.653 40.3429 210.73 40.3429H211.279C211.357 40.3429 211.42 40.3702 211.466 40.4247C211.521 40.4714 211.548 40.5337 211.548 40.6116V42.5621H212.996C213.074 42.5621 213.137 42.5894 213.183 42.6439C213.238 42.6906 213.265 42.7529 213.265 42.8308V43.2279C213.265 43.3058 213.238 43.3719 213.183 43.4265C213.137 43.4732 213.074 43.4965 212.996 43.4965H211.548V46.4983C211.548 46.8643 211.61 47.1524 211.735 47.3626C211.86 47.5729 212.081 47.678 212.401 47.678H213.113C213.191 47.678 213.253 47.7052 213.3 47.7598C213.355 47.8065 213.382 47.8688 213.382 47.9466V48.3671C213.382 48.445 213.355 48.5112 213.3 48.5657C213.253 48.6124 213.191 48.6358 213.113 48.6358H212.307ZM216.192 48.7526C215.803 48.7526 215.449 48.6747 215.129 48.519C214.81 48.3632 214.553 48.153 214.359 47.8882C214.164 47.6235 214.067 47.3237 214.067 46.9889C214.067 46.4516 214.285 46.0233 214.721 45.7041C215.157 45.3848 215.725 45.1746 216.426 45.0733L218.166 44.8281V44.4893C218.166 44.1156 218.057 43.8236 217.839 43.6133C217.629 43.4031 217.282 43.298 216.8 43.298C216.449 43.298 216.165 43.3681 215.947 43.5082C215.737 43.6484 215.589 43.8275 215.503 44.0455C215.456 44.1623 215.375 44.2207 215.258 44.2207H214.732C214.647 44.2207 214.58 44.1973 214.534 44.1506C214.495 44.0961 214.475 44.0338 214.475 43.9637C214.475 43.8469 214.518 43.7029 214.604 43.5316C214.697 43.3603 214.837 43.1928 215.024 43.0293C215.211 42.8658 215.449 42.7295 215.737 42.6205C216.033 42.5037 216.391 42.4453 216.811 42.4453C217.279 42.4453 217.672 42.5076 217.991 42.6322C218.31 42.749 218.559 42.9086 218.739 43.1111C218.925 43.3135 219.058 43.5433 219.136 43.8002C219.221 44.0572 219.264 44.318 219.264 44.5828V48.3671C219.264 48.445 219.237 48.5112 219.182 48.5657C219.136 48.6124 219.073 48.6358 218.996 48.6358H218.458C218.373 48.6358 218.306 48.6124 218.26 48.5657C218.213 48.5112 218.19 48.445 218.19 48.3671V47.8649C218.088 48.005 217.952 48.1452 217.781 48.2854C217.61 48.4177 217.395 48.5306 217.138 48.6241C216.881 48.7097 216.566 48.7526 216.192 48.7526ZM216.438 47.8766C216.757 47.8766 217.049 47.8104 217.314 47.678C217.578 47.5378 217.785 47.3237 217.933 47.0356C218.088 46.7475 218.166 46.3854 218.166 45.9493V45.6223L216.811 45.8209C216.259 45.8987 215.842 46.0311 215.562 46.218C215.281 46.3971 215.141 46.6268 215.141 46.9071C215.141 47.1251 215.203 47.3081 215.328 47.4561C215.46 47.5962 215.624 47.7014 215.819 47.7714C216.021 47.8415 216.227 47.8766 216.438 47.8766ZM221.212 48.6358C221.134 48.6358 221.068 48.6124 221.013 48.5657C220.967 48.5112 220.943 48.445 220.943 48.3671V42.8308C220.943 42.7529 220.967 42.6906 221.013 42.6439C221.068 42.5894 221.134 42.5621 221.212 42.5621H221.761C221.839 42.5621 221.901 42.5894 221.948 42.6439C222.002 42.6906 222.03 42.7529 222.03 42.8308V43.3447C222.232 43.0799 222.485 42.8658 222.789 42.7023C223.1 42.531 223.497 42.4453 223.98 42.4453C224.486 42.4453 224.915 42.5582 225.265 42.784C225.623 43.0021 225.892 43.3097 226.071 43.7068C226.25 44.0961 226.339 44.5516 226.339 45.0733V48.3671C226.339 48.445 226.316 48.5112 226.269 48.5657C226.223 48.6124 226.16 48.6358 226.083 48.6358H225.499C225.421 48.6358 225.354 48.6124 225.3 48.5657C225.253 48.5112 225.23 48.445 225.23 48.3671V45.1317C225.23 44.5867 225.097 44.1623 224.833 43.8586C224.568 43.5471 224.179 43.3914 223.665 43.3914C223.182 43.3914 222.793 43.5471 222.497 43.8586C222.209 44.1623 222.065 44.5867 222.065 45.1317V48.3671C222.065 48.445 222.037 48.5112 221.983 48.5657C221.936 48.6124 221.874 48.6358 221.796 48.6358H221.212ZM230.318 48.6358C229.882 48.6358 229.527 48.554 229.255 48.3905C228.982 48.2192 228.784 47.9817 228.659 47.678C228.535 47.3665 228.472 47.0005 228.472 46.5801V43.4965H227.561C227.483 43.4965 227.417 43.4732 227.363 43.4265C227.316 43.3719 227.293 43.3058 227.293 43.2279V42.8308C227.293 42.7529 227.316 42.6906 227.363 42.6439C227.417 42.5894 227.483 42.5621 227.561 42.5621H228.472V40.6116C228.472 40.5337 228.496 40.4714 228.542 40.4247C228.597 40.3702 228.663 40.3429 228.741 40.3429H229.29C229.368 40.3429 229.43 40.3702 229.477 40.4247C229.531 40.4714 229.559 40.5337 229.559 40.6116V42.5621H231.007C231.085 42.5621 231.147 42.5894 231.194 42.6439C231.248 42.6906 231.276 42.7529 231.276 42.8308V43.2279C231.276 43.3058 231.248 43.3719 231.194 43.4265C231.147 43.4732 231.085 43.4965 231.007 43.4965H229.559V46.4983C229.559 46.8643 229.621 47.1524 229.745 47.3626C229.87 47.5729 230.092 47.678 230.411 47.678H231.124C231.202 47.678 231.264 47.7052 231.311 47.7598C231.365 47.8065 231.392 47.8688 231.392 47.9466V48.3671C231.392 48.445 231.365 48.5112 231.311 48.5657C231.264 48.6124 231.202 48.6358 231.124 48.6358H230.318ZM232.79 48.6358C232.712 48.6358 232.646 48.6124 232.591 48.5657C232.544 48.5112 232.521 48.445 232.521 48.3671V40.6116C232.521 40.5337 232.544 40.4714 232.591 40.4247C232.646 40.3702 232.712 40.3429 232.79 40.3429H233.339C233.424 40.3429 233.49 40.3702 233.537 40.4247C233.584 40.4714 233.607 40.5337 233.607 40.6116V48.3671C233.607 48.445 233.584 48.5112 233.537 48.5657C233.49 48.6124 233.424 48.6358 233.339 48.6358H232.79ZM236.412 50.855C236.35 50.855 236.296 50.8316 236.249 50.7849C236.202 50.7382 236.179 50.6837 236.179 50.6214C236.179 50.5902 236.183 50.5591 236.19 50.5279C236.198 50.4968 236.214 50.4578 236.237 50.4111L237.137 48.2737L234.906 43.006C234.867 42.9125 234.847 42.8463 234.847 42.8074C234.847 42.7373 234.871 42.6789 234.917 42.6322C234.964 42.5855 235.022 42.5621 235.093 42.5621H235.665C235.743 42.5621 235.805 42.5816 235.852 42.6205C235.898 42.6595 235.93 42.7062 235.945 42.7607L237.721 47.0122L239.543 42.7607C239.566 42.7062 239.597 42.6595 239.636 42.6205C239.683 42.5816 239.749 42.5621 239.835 42.5621H240.384C240.454 42.5621 240.512 42.5855 240.559 42.6322C240.605 42.6789 240.629 42.7334 240.629 42.7957C240.629 42.8347 240.609 42.9047 240.57 43.006L237.253 50.6564C237.23 50.7109 237.195 50.7576 237.148 50.7966C237.109 50.8355 237.047 50.855 236.961 50.855H236.412Z" fill="#666666"/>
<path d="M235.018 21.2291C234.846 21.2291 234.698 21.1746 234.574 21.0656C234.465 20.941 234.41 20.7931 234.41 20.6218V16.6038H230.509C230.338 16.6038 230.19 16.5493 230.065 16.4403C229.956 16.3157 229.902 16.1678 229.902 15.9964V13.8707C229.902 13.6994 229.956 13.5592 230.065 13.4502C230.19 13.3256 230.338 13.2633 230.509 13.2633H234.41V9.36218C234.41 9.19087 234.465 9.05071 234.574 8.94169C234.698 8.81711 234.846 8.75481 235.018 8.75481H237.4C237.572 8.75481 237.712 8.81711 237.821 8.94169C237.945 9.05071 238.008 9.19087 238.008 9.36218V13.2633H241.862C242.033 13.2633 242.174 13.3256 242.283 13.4502C242.407 13.5592 242.469 13.6994 242.469 13.8707V15.9964C242.469 16.1678 242.407 16.3157 242.283 16.4403C242.174 16.5493 242.033 16.6038 241.862 16.6038H238.008V20.6218C238.008 20.7931 237.945 20.941 237.821 21.0656C237.712 21.1746 237.572 21.2291 237.4 21.2291H235.018Z" fill="black"/>
<g filter="url(#filter0_d_122_3929)">
<path d="M33.2912 42.6826V32.8836C29.7279 29.3203 21.7105 35.5561 18.1472 39.1193V48.0276H27.9463C32.2222 47.3149 33.2912 44.1673 33.2912 42.6826Z" fill="#9D86B9"/>
<path d="M27.0554 23.9752C21.7105 28.4293 19.038 34.0712 18.1472 37.3376C25.9864 25.2225 36.2606 24.5691 40.4178 25.7569C29.0152 26.4695 20.8197 34.962 18.1472 39.1192C20.9978 36.2686 26.4615 34.3681 28.8371 33.7743C31.6877 33.0616 36.5575 32.8834 38.6361 32.8834C47.188 31.4581 49.326 25.7569 49.326 23.0844V17.7395C40.0614 16.3142 31.5095 20.2635 27.0554 23.9752Z" fill="#705295"/>
<path d="M23.4921 2.59557H33.2912V16.8487C21.7105 23.9753 21.7105 26.6478 18.1472 32.8835V8.83133C18.1472 3.84272 21.7105 2.59557 23.4921 2.59557Z" fill="#FFD6B9"/>
<path d="M2.11267 32.8832C1.22183 18.63 13.0995 17.1453 18.1474 17.7392V32.8832H2.11267Z" fill="#FFC79F"/>
</g>
<defs>
<filter id="filter0_d_122_3929" x="9.87053e-05" y="2.59557" width="51.3909" height="49.5622" filterUnits="userSpaceOnUse" color-interpolation-filters="sRGB">
<feFlood flood-opacity="0" result="BackgroundImageFix"/>
<feColorMatrix in="SourceAlpha" type="matrix" values="0 0 0 0 0 0 0 0 0 0 0 0 0 0 0 0 0 0 127 0" result="hardAlpha"/>
<feOffset dy="2.06509"/>
<feGaussianBlur stdDeviation="1.03254"/>
<feComposite in2="hardAlpha" operator="out"/>
<feColorMatrix type="matrix" values="0 0 0 0 0 0 0 0 0 0 0 0 0 0 0 0 0 0 0.25 0"/>
<feBlend mode="normal" in2="BackgroundImageFix" result="effect1_dropShadow_122_3929"/>
<feBlend mode="normal" in="SourceGraphic" in2="effect1_dropShadow_122_3929" result="shape"/>
</filter>
</defs>
</svg>
